# xmcd
#
# Track frame offsets:
#	150
#	16715
#	29517
#	48790
#	68972
#	86529
#	107190
#	128552
#	149382
#	169805
#	190225
#	205795
#	222497
#
# Disc length: 3211 seconds
#
# Revision: 0
# Processed by: cddbd v1.4PL0 Copyright (c) Steve Scherf et al.
# Submitted via: dBpowerAMP V4.0
#
DISCID=b50c890d
DTITLE=Laura Mendes - Laura Mendes
DYEAR=1900
DGENRE=MPB
TTITLE0=Vê Se Me Deixa Em Paz
TTITLE1=Fuga Em lá Menor
TTITLE2=O Tempo Levou
TTITLE3=Onde Está o Perigo?
TTITLE4=Blues Moon (É Necessário)
TTITLE5=Volta Ao Mundo
TTITLE6=O Mar...
TTITLE7=Me Dê Bom Dia
TTITLE8=Sua
TTITLE9=Doidivanas
TTITLE10=Garota, É Hora de Acordar
TTITLE11=Can´t We Find Another Way
TTITLE12=Instável
EXTD=
EXTT0=
EXTT1=
EXTT2=
EXTT3=
EXTT4=
EXTT5=
EXTT6=
EXTT7=
EXTT8=
EXTT9=
EXTT10=
EXTT11=
EXTT12=
PLAYORDER=
